<?xml version="1.0" encoding="UTF-8"?>
<!-- Generator: Adobe Illustrator 19.1.0, SVG Export Plug-In . SVG Version: 6.00 Build 0)  -->
<svg version="1.1" xmlns="http://www.w3.org/2000/svg" xmlns:xlink="http://www.w3.org/1999/xlink" x="0px" y="0px" width="1200px" height="603px" viewBox="0 0 1200 603" style="enable-background:new 0 0 1200 603;" xml:space="preserve">
<style type="text/css">
	.st0{fill:none;}
	.st1{display:none;}
	.st2{display:inline;fill:none;}
	.st3{display:inline;fill:#FFFFFF;stroke:#000000;stroke-miterlimit:10;}
	.st4{display:inline;fill:#CAEFE3;}
	.st5{display:inline;}
	.st6{fill:url(#SVGID_1_);}
	.st7{fill:url(#SVGID_2_);}
	.st8{fill:url(#SVGID_3_);}
	.st9{fill:url(#SVGID_4_);}
	.st10{fill:url(#SVGID_5_);}
	.st11{fill:url(#SVGID_6_);}
	.st12{fill:url(#SVGID_7_);}
	.st13{fill:none;stroke:#0071BC;stroke-width:8;stroke-linecap:round;stroke-miterlimit:10;}
	.st14{fill:#0071BC;}
	.st15{fill:none;stroke:#808080;stroke-width:5;stroke-linecap:round;stroke-miterlimit:10;stroke-dasharray:1.003,20.0609;}
	.st16{fill:url(#SVGID_8_);}
	.st17{display:inline;fill:url(#SVGID_9_);}
	.st18{display:inline;fill:url(#SVGID_10_);}
	.st19{display:inline;fill:url(#SVGID_11_);}
	.st20{display:inline;fill:url(#SVGID_12_);}
	.st21{display:inline;fill:#55C1A7;}
	.st22{display:inline;fill:url(#SVGID_13_);}
	.st23{display:inline;fill:url(#SVGID_14_);}
	.st24{font-family:'ProximaNova-Regular';}
	.st25{font-size:47.2133px;}
	.st26{display:inline;fill:none;stroke:#644172;stroke-miterlimit:10;}
	.st27{fill:#CAEFE3;}
	.st28{fill:url(#SVGID_15_);}
	.st29{fill:url(#SVGID_16_);}
	.st30{fill:url(#SVGID_17_);}
	.st31{fill:url(#SVGID_18_);}
	.st32{fill:url(#SVGID_19_);}
	.st33{fill:url(#SVGID_20_);}
	.st34{fill:url(#SVGID_21_);}
	.st35{fill:url(#SVGID_22_);}
	.st36{fill:url(#SVGID_23_);}
	.st37{fill:url(#SVGID_24_);}
	.st38{fill:url(#SVGID_25_);}
	.st39{fill:url(#SVGID_26_);}
	.st40{fill:#55C1A7;}
	.st41{fill:url(#SVGID_27_);}
	.st42{fill:url(#SVGID_28_);}
	.st43{fill:none;stroke:#644172;stroke-miterlimit:10;}
</style>
<g id="Layer_1">
</g>
<g id="Layer_2">
</g>
<g id="Layer_3" class="st1">
	<rect x="600" y="50.2" class="st2" width="600" height="600"/>
	<rect y="50.2" class="st3" width="600" height="600"/>
</g>
<g id="Layer_4" class="st1">
	<circle class="st4" cx="292" cy="344.2" r="241.4"/>
	<g id="Layer_5" class="st5">
		<linearGradient id="SVGID_1_" gradientUnits="userSpaceOnUse" x1="158.5336" y1="230.8823" x2="198.6159" y2="230.8823">
			<stop offset="0" style="stop-color:#B189C6"/>
			<stop offset="1" style="stop-color:#CAA3E8"/>
		</linearGradient>
		<circle class="st6" cx="178.6" cy="230.9" r="20"/>
		<linearGradient id="SVGID_2_" gradientUnits="userSpaceOnUse" x1="423.7533" y1="298.0033" x2="463.8356" y2="298.0033">
			<stop offset="0" style="stop-color:#B189C6"/>
			<stop offset="1" style="stop-color:#CAA3E8"/>
		</linearGradient>
		<circle class="st7" cx="443.8" cy="298" r="20"/>
		<linearGradient id="SVGID_3_" gradientUnits="userSpaceOnUse" x1="271.9647" y1="342.45" x2="312.047" y2="342.45">
			<stop offset="0" style="stop-color:#B189C6"/>
			<stop offset="1" style="stop-color:#CAA3E8"/>
		</linearGradient>
		<circle class="st8" cx="292" cy="342.5" r="20"/>
		<linearGradient id="SVGID_4_" gradientUnits="userSpaceOnUse" x1="320.7606" y1="185.9689" x2="360.8429" y2="185.9689">
			<stop offset="0" style="stop-color:#B189C6"/>
			<stop offset="1" style="stop-color:#CAA3E8"/>
		</linearGradient>
		<circle class="st9" cx="340.8" cy="186" r="20"/>
		<linearGradient id="SVGID_5_" gradientUnits="userSpaceOnUse" x1="251.9235" y1="518.456" x2="292.0059" y2="518.456">
			<stop offset="0" style="stop-color:#B189C6"/>
			<stop offset="1" style="stop-color:#CAA3E8"/>
		</linearGradient>
		<circle class="st10" cx="272" cy="518.5" r="20"/>
		<linearGradient id="SVGID_6_" gradientUnits="userSpaceOnUse" x1="123.8291" y1="390.3377" x2="163.9114" y2="390.3377">
			<stop offset="0" style="stop-color:#B189C6"/>
			<stop offset="1" style="stop-color:#CAA3E8"/>
		</linearGradient>
		<circle class="st11" cx="143.9" cy="390.3" r="20"/>
		<linearGradient id="SVGID_7_" gradientUnits="userSpaceOnUse" x1="394.8257" y1="436.3282" x2="434.908" y2="436.3282">
			<stop offset="0" style="stop-color:#B189C6"/>
			<stop offset="1" style="stop-color:#CAA3E8"/>
		</linearGradient>
		<circle class="st12" cx="414.9" cy="436.3" r="20"/>
	</g>
	<g class="st5">
		<g>
			<line class="st13" x1="28" y1="188.2" x2="530.8" y2="188.2"/>
			<g>
				<polygon class="st14" points="525.6,205.8 556,188.2 525.6,170.7     "/>
			</g>
		</g>
	</g>
	<g class="st5">
		<g>
			<line class="st13" x1="28" y1="257.9" x2="530.8" y2="257.9"/>
			<g>
				<polygon class="st14" points="525.6,275.5 556,257.9 525.6,240.4     "/>
			</g>
		</g>
	</g>
	<g class="st5">
		<g>
			<line class="st13" x1="28" y1="327.6" x2="530.8" y2="327.6"/>
			<g>
				<polygon class="st14" points="525.6,345.2 556,327.6 525.6,310.1     "/>
			</g>
		</g>
	</g>
	<g class="st5">
		<g>
			<line class="st13" x1="28" y1="397.3" x2="530.8" y2="397.3"/>
			<g>
				<polygon class="st14" points="525.6,414.9 556,397.3 525.6,379.8     "/>
			</g>
		</g>
	</g>
	<g class="st5">
		<g>
			<line class="st13" x1="28" y1="467" x2="530.8" y2="467"/>
			<g>
				<polygon class="st14" points="525.6,484.6 556,467 525.6,449.5     "/>
			</g>
		</g>
	</g>
	<g class="st5">
		<g>
			<line class="st13" x1="28" y1="536.8" x2="530.8" y2="536.8"/>
			<g>
				<polygon class="st14" points="525.6,554.3 556,536.8 525.6,519.2     "/>
			</g>
		</g>
	</g>
</g>
<g id="Layer_6" class="st1">
	<rect x="600" y="50.2" class="st3" width="600" height="600"/>
	<g class="st5">
		<circle class="st15" cx="902" cy="344.2" r="241.4"/>
	</g>
	<g id="Layer_7" class="st5">
		<linearGradient id="SVGID_8_" gradientUnits="userSpaceOnUse" x1="764.6392" y1="467.0461" x2="804.7215" y2="467.0461">
			<stop offset="0" style="stop-color:#B189C6"/>
			<stop offset="1" style="stop-color:#CAA3E8"/>
		</linearGradient>
		<circle class="st16" cx="784.7" cy="467" r="20"/>
	</g>
	<linearGradient id="SVGID_9_" gradientUnits="userSpaceOnUse" x1="929.9779" y1="162.0927" x2="970.0602" y2="162.0927">
		<stop offset="0" style="stop-color:#B189C6"/>
		<stop offset="1" style="stop-color:#CAA3E8"/>
	</linearGradient>
	<circle class="st17" cx="950" cy="162.1" r="20"/>
	<linearGradient id="SVGID_10_" gradientUnits="userSpaceOnUse" x1="777.2957" y1="213.2538" x2="817.378" y2="213.2538">
		<stop offset="0" style="stop-color:#B189C6"/>
		<stop offset="1" style="stop-color:#CAA3E8"/>
	</linearGradient>
	<circle class="st18" cx="797.3" cy="213.3" r="20"/>
	<linearGradient id="SVGID_11_" gradientUnits="userSpaceOnUse" x1="1026.8668" y1="267.9622" x2="1066.9491" y2="267.9622">
		<stop offset="0" style="stop-color:#B189C6"/>
		<stop offset="1" style="stop-color:#CAA3E8"/>
	</linearGradient>
	<circle class="st19" cx="1046.9" cy="268" r="20"/>
	<linearGradient id="SVGID_12_" gradientUnits="userSpaceOnUse" x1="711.2478" y1="330.75" x2="751.3301" y2="330.75">
		<stop offset="0" style="stop-color:#B189C6"/>
		<stop offset="1" style="stop-color:#CAA3E8"/>
	</linearGradient>
	<circle class="st20" cx="731.3" cy="330.8" r="20"/>
	<circle class="st21" cx="904.9" cy="343.6" r="34.1"/>
	<linearGradient id="SVGID_13_" gradientUnits="userSpaceOnUse" x1="1046.908" y1="397.3377" x2="1086.9904" y2="397.3377">
		<stop offset="0" style="stop-color:#B189C6"/>
		<stop offset="1" style="stop-color:#CAA3E8"/>
	</linearGradient>
	<circle class="st22" cx="1066.9" cy="397.3" r="20"/>
	<linearGradient id="SVGID_14_" gradientUnits="userSpaceOnUse" x1="937.4606" y1="498.0035" x2="977.5429" y2="498.0035">
		<stop offset="0" style="stop-color:#B189C6"/>
		<stop offset="1" style="stop-color:#CAA3E8"/>
	</linearGradient>
	<circle class="st23" cx="957.5" cy="498" r="20"/>
	<g class="st5">
		<g>
			<line class="st13" x1="638" y1="213.3" x2="1140.8" y2="213.3"/>
			<g>
				<polygon class="st14" points="1135.6,230.8 1166,213.3 1135.6,195.7     "/>
			</g>
		</g>
	</g>
	<g class="st5">
		<g>
			<path class="st13" d="M638,285.2h255.1c7.9,0,15.7-0.5,23.5-1.5l227.9-29.6"/>
			<g>
				<polygon class="st14" points="1141.6,272.1 1169.5,250.8 1137.1,237.3     "/>
			</g>
		</g>
	</g>
	<g class="st5">
		<g>
			<path class="st13" d="M638,342.5h212.1c13,0,19.5-15.9,10.1-25l-206-204.4"/>
			<g>
				<polygon class="st14" points="670.2,104.3 636.2,95.4 645.5,129.2     "/>
			</g>
		</g>
	</g>
	<g class="st5">
		<g>
			<line class="st13" x1="638" y1="536.8" x2="1140.8" y2="536.8"/>
			<g>
				<polygon class="st14" points="1135.6,554.3 1166,536.8 1135.6,519.2     "/>
			</g>
		</g>
	</g>
	<g class="st5">
		<g>
			<line class="st13" x1="636.2" y1="472" x2="1139" y2="472"/>
			<g>
				<polygon class="st14" points="1133.9,489.6 1164.3,472 1133.9,454.5     "/>
			</g>
		</g>
	</g>
	<g class="st5">
		<g>
			<path class="st13" d="M636.2,398.2h253.2c9.1,0,18.3,0.6,27.4,1.8l226,29.4"/>
			<g>
				<polygon class="st14" points="1135.4,446.1 1167.8,432.6 1139.9,411.2     "/>
			</g>
		</g>
	</g>
	<g class="st5">
		<g>
			<line class="st13" x1="638" y1="142.1" x2="1140.8" y2="142.1"/>
			<g>
				<polygon class="st14" points="1135.6,159.6 1166,142.1 1135.6,124.5     "/>
			</g>
		</g>
	</g>
</g>
<g id="Layer_8" class="st1">
	<text transform="matrix(1 0 0 1 90.8994 64.1318)" class="st5 st24 st25">THOMSON MODEL</text>
	<text transform="matrix(1 0 0 1 664.8895 64.1318)" class="st5 st24 st25">RUTHERFORD MODEL</text>
</g>
<g id="Layer_8_copy" class="st1">
	<g class="st5">
		<path d="M102.4,64.1v-28h-10v-3.5h23.9v3.5h-10v28H102.4z"/>
		<path d="M143.8,64.1V49.7h-18.4v14.4h-3.9V32.6h3.9v13.5h18.4V32.6h3.9v31.5H143.8z"/>
		<path d="M153.8,48.4c0-9.3,6.3-16.3,15.6-16.3c9.3,0,15.6,7,15.6,16.3s-6.3,16.3-15.6,16.3C160.1,64.7,153.8,57.7,153.8,48.4z     M181,48.4c0-7.4-4.5-12.8-11.6-12.8c-7.1,0-11.6,5.4-11.6,12.8c0,7.3,4.5,12.8,11.6,12.8C176.5,61.2,181,55.7,181,48.4z"/>
		<path d="M218.1,64.1V38.2l-10.7,25.9h-1.6l-10.7-25.9v25.9h-3.9V32.6h5.6l9.8,23.7l9.8-23.7h5.6v31.5H218.1z"/>
		<path d="M227.5,59.7l2.3-3c2.1,2.3,5.5,4.5,9.9,4.5c5.6,0,7.4-3,7.4-5.4c0-8.1-18.6-3.6-18.6-14.9c0-5.2,4.6-8.7,10.8-8.7    c4.8,0,8.5,1.6,11.2,4.4l-2.4,2.9c-2.4-2.6-5.7-3.8-9.1-3.8c-3.8,0-6.5,2-6.5,5c0,7.1,18.6,3,18.6,14.8c0,4.6-3.1,9.3-11.6,9.3    C234.1,64.7,230.1,62.6,227.5,59.7z"/>
		<path d="M255.8,48.4c0-9.3,6.3-16.3,15.6-16.3c9.3,0,15.6,7,15.6,16.3s-6.3,16.3-15.6,16.3C262.1,64.7,255.8,57.7,255.8,48.4z     M283,48.4c0-7.4-4.5-12.8-11.6-12.8c-7.1,0-11.6,5.4-11.6,12.8c0,7.3,4.5,12.8,11.6,12.8C278.5,61.2,283,55.7,283,48.4z"/>
		<path d="M315.5,64.1L297.1,39v25.1h-3.9V32.6h4l18.1,24.6V32.6h3.9v31.5H315.5z"/>
		<path d="M365.7,64.1V38.2L355,64.1h-1.6l-10.7-25.9v25.9h-3.9V32.6h5.6l9.8,23.7l9.8-23.7h5.6v31.5H365.7z"/>
		<path d="M375.7,48.4c0-9.3,6.3-16.3,15.6-16.3c9.3,0,15.6,7,15.6,16.3s-6.3,16.3-15.6,16.3C382,64.7,375.7,57.7,375.7,48.4z     M402.9,48.4c0-7.4-4.5-12.8-11.6-12.8c-7.1,0-11.6,5.4-11.6,12.8c0,7.3,4.5,12.8,11.6,12.8C398.4,61.2,402.9,55.7,402.9,48.4z"/>
		<path d="M413.1,64.1V32.6h10.8c9.8,0,16.1,6.8,16.1,15.8c0,9-6.4,15.7-16.1,15.7H413.1z M436,48.4c0-6.8-4.3-12.3-12.1-12.3H417    v24.5h6.8C431.5,60.6,436,55.2,436,48.4z"/>
		<path d="M446.2,64.1V32.6h20.6v3.5h-16.7v10.2h16.4v3.5h-16.4v10.9h16.7v3.5H446.2z"/>
		<path d="M473,64.1V32.6h3.9v28h14.6v3.5H473z"/>
	</g>
	<g class="st5">
		<path d="M686.8,64.1l-8-12.5h-6.3v12.5h-3.9V32.6h12.7c5.8,0,9.9,3.7,9.9,9.5c0,5.7-3.9,8.8-8.2,9.2l8.5,12.8H686.8z M687,42.1    c0-3.5-2.5-6-6.3-6h-8.3v12h8.3C684.5,48.2,687,45.7,687,42.1z"/>
		<path d="M697.3,51.9V32.6h3.9v19.2c0,5.8,3.1,9.4,8.9,9.4s8.9-3.6,8.9-9.4V32.6h3.9v19.2c0,7.8-4.3,12.8-12.8,12.8    S697.3,59.6,697.3,51.9z"/>
		<path d="M738.1,64.1v-28h-10v-3.5H752v3.5h-10v28H738.1z"/>
		<path d="M779.6,64.1V49.7h-18.4v14.4h-3.9V32.6h3.9v13.5h18.4V32.6h3.9v31.5H779.6z"/>
		<path d="M790.9,64.1V32.6h20.6v3.5h-16.7v10.2h16.4v3.5h-16.4v10.9h16.7v3.5H790.9z"/>
		<path d="M835.9,64.1l-8-12.5h-6.3v12.5h-3.9V32.6h12.7c5.8,0,9.9,3.7,9.9,9.5c0,5.7-3.9,8.8-8.2,9.2l8.5,12.8H835.9z M836.2,42.1    c0-3.5-2.5-6-6.3-6h-8.3v12h8.3C833.6,48.2,836.2,45.7,836.2,42.1z"/>
		<path d="M846.4,64.1V32.6h20.6v3.5h-16.7v10.2h16.4v3.5h-16.4v14.4H846.4z"/>
		<path d="M871.1,48.4c0-9.3,6.3-16.3,15.6-16.3c9.3,0,15.6,7,15.6,16.3s-6.3,16.3-15.6,16.3C877.4,64.7,871.1,57.7,871.1,48.4z     M898.3,48.4c0-7.4-4.5-12.8-11.6-12.8c-7.1,0-11.6,5.4-11.6,12.8c0,7.3,4.5,12.8,11.6,12.8C893.8,61.2,898.3,55.7,898.3,48.4z"/>
		<path d="M926.7,64.1l-8-12.5h-6.3v12.5h-3.9V32.6h12.7c5.8,0,9.9,3.7,9.9,9.5c0,5.7-3.9,8.8-8.2,9.2l8.5,12.8H926.7z M927,42.1    c0-3.5-2.5-6-6.3-6h-8.3v12h8.3C924.4,48.2,927,45.7,927,42.1z"/>
		<path d="M937.2,64.1V32.6H948c9.8,0,16.1,6.8,16.1,15.8c0,9-6.4,15.7-16.1,15.7H937.2z M960.1,48.4c0-6.8-4.3-12.3-12.1-12.3h-6.8    v24.5h6.8C955.6,60.6,960.1,55.2,960.1,48.4z"/>
		<path d="M1009.4,64.1V38.2l-10.7,25.9H997l-10.7-25.9v25.9h-3.9V32.6h5.6l9.8,23.7l9.8-23.7h5.6v31.5H1009.4z"/>
		<path d="M1019.4,48.4c0-9.3,6.3-16.3,15.6-16.3c9.3,0,15.6,7,15.6,16.3s-6.3,16.3-15.6,16.3C1025.6,64.7,1019.4,57.7,1019.4,48.4z     M1046.6,48.4c0-7.4-4.5-12.8-11.6-12.8c-7.1,0-11.6,5.4-11.6,12.8c0,7.3,4.5,12.8,11.6,12.8C1042,61.2,1046.6,55.7,1046.6,48.4z"/>
		<path d="M1056.8,64.1V32.6h10.8c9.8,0,16.1,6.8,16.1,15.8c0,9-6.4,15.7-16.1,15.7H1056.8z M1079.6,48.4c0-6.8-4.3-12.3-12.1-12.3    h-6.8v24.5h6.8C1075.2,60.6,1079.6,55.2,1079.6,48.4z"/>
		<path d="M1089.8,64.1V32.6h20.6v3.5h-16.7v10.2h16.4v3.5h-16.4v10.9h16.7v3.5H1089.8z"/>
		<path d="M1116.7,64.1V32.6h3.9v28h14.6v3.5H1116.7z"/>
	</g>
</g>
<g id="Layer_9" class="st1">
	<line class="st26" x1="600" y1="2.5" x2="600" y2="652.7"/>
</g>
<g id="Layer_11">
	<circle class="st27" cx="292" cy="344.2" r="241.4"/>
	<linearGradient id="SVGID_15_" gradientUnits="userSpaceOnUse" x1="158.5336" y1="230.8823" x2="198.6159" y2="230.8823">
		<stop offset="0" style="stop-color:#B189C6"/>
		<stop offset="1" style="stop-color:#CAA3E8"/>
	</linearGradient>
	<circle class="st28" cx="178.6" cy="230.9" r="20"/>
	<linearGradient id="SVGID_16_" gradientUnits="userSpaceOnUse" x1="423.7533" y1="298.0033" x2="463.8356" y2="298.0033">
		<stop offset="0" style="stop-color:#B189C6"/>
		<stop offset="1" style="stop-color:#CAA3E8"/>
	</linearGradient>
	<circle class="st29" cx="443.8" cy="298" r="20"/>
	<linearGradient id="SVGID_17_" gradientUnits="userSpaceOnUse" x1="271.9647" y1="342.45" x2="312.047" y2="342.45">
		<stop offset="0" style="stop-color:#B189C6"/>
		<stop offset="1" style="stop-color:#CAA3E8"/>
	</linearGradient>
	<circle class="st30" cx="292" cy="342.5" r="20"/>
	<linearGradient id="SVGID_18_" gradientUnits="userSpaceOnUse" x1="320.7606" y1="185.9689" x2="360.8429" y2="185.9689">
		<stop offset="0" style="stop-color:#B189C6"/>
		<stop offset="1" style="stop-color:#CAA3E8"/>
	</linearGradient>
	<circle class="st31" cx="340.8" cy="186" r="20"/>
	<linearGradient id="SVGID_19_" gradientUnits="userSpaceOnUse" x1="251.9235" y1="518.456" x2="292.0059" y2="518.456">
		<stop offset="0" style="stop-color:#B189C6"/>
		<stop offset="1" style="stop-color:#CAA3E8"/>
	</linearGradient>
	<circle class="st32" cx="272" cy="518.5" r="20"/>
	<linearGradient id="SVGID_20_" gradientUnits="userSpaceOnUse" x1="123.8291" y1="390.3377" x2="163.9114" y2="390.3377">
		<stop offset="0" style="stop-color:#B189C6"/>
		<stop offset="1" style="stop-color:#CAA3E8"/>
	</linearGradient>
	<circle class="st33" cx="143.9" cy="390.3" r="20"/>
	<linearGradient id="SVGID_21_" gradientUnits="userSpaceOnUse" x1="394.8257" y1="436.3282" x2="434.908" y2="436.3282">
		<stop offset="0" style="stop-color:#B189C6"/>
		<stop offset="1" style="stop-color:#CAA3E8"/>
	</linearGradient>
	<circle class="st34" cx="414.9" cy="436.3" r="20"/>
	<g>
		<line class="st13" x1="28" y1="188.2" x2="530.8" y2="188.2"/>
		<g>
			<polygon class="st14" points="525.6,205.8 556,188.2 525.6,170.7    "/>
		</g>
	</g>
	<g>
		<line class="st13" x1="28" y1="257.9" x2="530.8" y2="257.9"/>
		<g>
			<polygon class="st14" points="525.6,275.5 556,257.9 525.6,240.4    "/>
		</g>
	</g>
	<g>
		<line class="st13" x1="28" y1="327.6" x2="530.8" y2="327.6"/>
		<g>
			<polygon class="st14" points="525.6,345.2 556,327.6 525.6,310.1    "/>
		</g>
	</g>
	<g>
		<line class="st13" x1="28" y1="397.3" x2="530.8" y2="397.3"/>
		<g>
			<polygon class="st14" points="525.6,414.9 556,397.3 525.6,379.8    "/>
		</g>
	</g>
	<g>
		<line class="st13" x1="28" y1="467" x2="530.8" y2="467"/>
		<g>
			<polygon class="st14" points="525.6,484.6 556,467 525.6,449.5    "/>
		</g>
	</g>
	<g>
		<line class="st13" x1="28" y1="536.8" x2="530.8" y2="536.8"/>
		<g>
			<polygon class="st14" points="525.6,554.3 556,536.8 525.6,519.2    "/>
		</g>
	</g>
	<circle class="st15" cx="902" cy="344.2" r="241.4"/>
	<linearGradient id="SVGID_22_" gradientUnits="userSpaceOnUse" x1="764.6392" y1="467.0461" x2="804.7215" y2="467.0461">
		<stop offset="0" style="stop-color:#B189C6"/>
		<stop offset="1" style="stop-color:#CAA3E8"/>
	</linearGradient>
	<circle class="st35" cx="784.7" cy="467" r="20"/>
	<linearGradient id="SVGID_23_" gradientUnits="userSpaceOnUse" x1="929.9779" y1="162.0927" x2="970.0602" y2="162.0927">
		<stop offset="0" style="stop-color:#B189C6"/>
		<stop offset="1" style="stop-color:#CAA3E8"/>
	</linearGradient>
	<circle class="st36" cx="950" cy="162.1" r="20"/>
	<linearGradient id="SVGID_24_" gradientUnits="userSpaceOnUse" x1="777.2957" y1="213.2538" x2="817.378" y2="213.2538">
		<stop offset="0" style="stop-color:#B189C6"/>
		<stop offset="1" style="stop-color:#CAA3E8"/>
	</linearGradient>
	<circle class="st37" cx="797.3" cy="213.3" r="20"/>
	<linearGradient id="SVGID_25_" gradientUnits="userSpaceOnUse" x1="1026.8668" y1="267.9622" x2="1066.9491" y2="267.9622">
		<stop offset="0" style="stop-color:#B189C6"/>
		<stop offset="1" style="stop-color:#CAA3E8"/>
	</linearGradient>
	<circle class="st38" cx="1046.9" cy="268" r="20"/>
	<linearGradient id="SVGID_26_" gradientUnits="userSpaceOnUse" x1="711.2478" y1="330.75" x2="751.3301" y2="330.75">
		<stop offset="0" style="stop-color:#B189C6"/>
		<stop offset="1" style="stop-color:#CAA3E8"/>
	</linearGradient>
	<circle class="st39" cx="731.3" cy="330.8" r="20"/>
	<circle class="st40" cx="904.9" cy="343.6" r="34.1"/>
	<linearGradient id="SVGID_27_" gradientUnits="userSpaceOnUse" x1="1046.908" y1="397.3377" x2="1086.9904" y2="397.3377">
		<stop offset="0" style="stop-color:#B189C6"/>
		<stop offset="1" style="stop-color:#CAA3E8"/>
	</linearGradient>
	<circle class="st41" cx="1066.9" cy="397.3" r="20"/>
	<linearGradient id="SVGID_28_" gradientUnits="userSpaceOnUse" x1="937.4606" y1="498.0035" x2="977.5429" y2="498.0035">
		<stop offset="0" style="stop-color:#B189C6"/>
		<stop offset="1" style="stop-color:#CAA3E8"/>
	</linearGradient>
	<circle class="st42" cx="957.5" cy="498" r="20"/>
	<g>
		<line class="st13" x1="638" y1="213.3" x2="1140.8" y2="213.3"/>
		<g>
			<polygon class="st14" points="1135.6,230.8 1166,213.3 1135.6,195.7    "/>
		</g>
	</g>
	<g>
		<path class="st13" d="M638,285.2h255.1c7.9,0,15.7-0.5,23.5-1.5l227.9-29.6"/>
		<g>
			<polygon class="st14" points="1141.6,272.1 1169.5,250.8 1137.1,237.3    "/>
		</g>
	</g>
	<g>
		<path class="st13" d="M638,342.5h212.1c13,0,19.5-15.9,10.1-25l-206-204.4"/>
		<g>
			<polygon class="st14" points="670.2,104.3 636.2,95.4 645.5,129.2    "/>
		</g>
	</g>
	<g>
		<line class="st13" x1="638" y1="536.8" x2="1140.8" y2="536.8"/>
		<g>
			<polygon class="st14" points="1135.6,554.3 1166,536.8 1135.6,519.2    "/>
		</g>
	</g>
	<g>
		<line class="st13" x1="636.2" y1="472" x2="1139" y2="472"/>
		<g>
			<polygon class="st14" points="1133.9,489.6 1164.3,472 1133.9,454.5    "/>
		</g>
	</g>
	<g>
		<path class="st13" d="M636.2,398.2h253.2c9.1,0,18.3,0.6,27.4,1.8l226,29.4"/>
		<g>
			<polygon class="st14" points="1135.4,446.1 1167.8,432.6 1139.9,411.2    "/>
		</g>
	</g>
	<g>
		<line class="st13" x1="638" y1="142.1" x2="1140.8" y2="142.1"/>
		<g>
			<polygon class="st14" points="1135.6,159.6 1166,142.1 1135.6,124.5    "/>
		</g>
	</g>
	<g>
		<path d="M102.4,64.1v-28h-10v-3.5h23.9v3.5h-10v28H102.4z"/>
		<path d="M143.8,64.1V49.7h-18.4v14.4h-3.9V32.6h3.9v13.5h18.4V32.6h3.9v31.5H143.8z"/>
		<path d="M153.8,48.4c0-9.3,6.3-16.3,15.6-16.3c9.3,0,15.6,7,15.6,16.3s-6.3,16.3-15.6,16.3C160.1,64.7,153.8,57.7,153.8,48.4z     M181,48.4c0-7.4-4.5-12.8-11.6-12.8c-7.1,0-11.6,5.4-11.6,12.8c0,7.3,4.5,12.8,11.6,12.8C176.5,61.2,181,55.7,181,48.4z"/>
		<path d="M218.1,64.1V38.2l-10.7,25.9h-1.6l-10.7-25.9v25.9h-3.9V32.6h5.6l9.8,23.7l9.8-23.7h5.6v31.5H218.1z"/>
		<path d="M227.5,59.7l2.3-3c2.1,2.3,5.5,4.5,9.9,4.5c5.6,0,7.4-3,7.4-5.4c0-8.1-18.6-3.6-18.6-14.9c0-5.2,4.6-8.7,10.8-8.7    c4.8,0,8.5,1.6,11.2,4.4l-2.4,2.9c-2.4-2.6-5.7-3.8-9.1-3.8c-3.8,0-6.5,2-6.5,5c0,7.1,18.6,3,18.6,14.8c0,4.6-3.1,9.3-11.6,9.3    C234.1,64.7,230.1,62.6,227.5,59.7z"/>
		<path d="M255.8,48.4c0-9.3,6.3-16.3,15.6-16.3c9.3,0,15.6,7,15.6,16.3s-6.3,16.3-15.6,16.3C262.1,64.7,255.8,57.7,255.8,48.4z     M283,48.4c0-7.4-4.5-12.8-11.6-12.8c-7.1,0-11.6,5.4-11.6,12.8c0,7.3,4.5,12.8,11.6,12.8C278.5,61.2,283,55.7,283,48.4z"/>
		<path d="M315.5,64.1L297.1,39v25.1h-3.9V32.6h4l18.1,24.6V32.6h3.9v31.5H315.5z"/>
		<path d="M365.7,64.1V38.2L355,64.1h-1.6l-10.7-25.9v25.9h-3.9V32.6h5.6l9.8,23.7l9.8-23.7h5.6v31.5H365.7z"/>
		<path d="M375.7,48.4c0-9.3,6.3-16.3,15.6-16.3c9.3,0,15.6,7,15.6,16.3s-6.3,16.3-15.6,16.3C382,64.7,375.7,57.7,375.7,48.4z     M402.9,48.4c0-7.4-4.5-12.8-11.6-12.8c-7.1,0-11.6,5.4-11.6,12.8c0,7.3,4.5,12.8,11.6,12.8C398.4,61.2,402.9,55.7,402.9,48.4z"/>
		<path d="M413.1,64.1V32.6h10.8c9.8,0,16.1,6.8,16.1,15.8c0,9-6.4,15.7-16.1,15.7H413.1z M436,48.4c0-6.8-4.3-12.3-12.1-12.3H417    v24.5h6.8C431.5,60.6,436,55.2,436,48.4z"/>
		<path d="M446.2,64.1V32.6h20.6v3.5h-16.7v10.2h16.4v3.5h-16.4v10.9h16.7v3.5H446.2z"/>
		<path d="M473,64.1V32.6h3.9v28h14.6v3.5H473z"/>
	</g>
	<g>
		<path d="M686.8,64.1l-8-12.5h-6.3v12.5h-3.9V32.6h12.7c5.8,0,9.9,3.7,9.9,9.5c0,5.7-3.9,8.8-8.2,9.2l8.5,12.8H686.8z M687,42.1    c0-3.5-2.5-6-6.3-6h-8.3v12h8.3C684.5,48.2,687,45.7,687,42.1z"/>
		<path d="M697.3,51.9V32.6h3.9v19.2c0,5.8,3.1,9.4,8.9,9.4s8.9-3.6,8.9-9.4V32.6h3.9v19.2c0,7.8-4.3,12.8-12.8,12.8    S697.3,59.6,697.3,51.9z"/>
		<path d="M738.1,64.1v-28h-10v-3.5H752v3.5h-10v28H738.1z"/>
		<path d="M779.6,64.1V49.7h-18.4v14.4h-3.9V32.6h3.9v13.5h18.4V32.6h3.9v31.5H779.6z"/>
		<path d="M790.9,64.1V32.6h20.6v3.5h-16.7v10.2h16.4v3.5h-16.4v10.9h16.7v3.5H790.9z"/>
		<path d="M835.9,64.1l-8-12.5h-6.3v12.5h-3.9V32.6h12.7c5.8,0,9.9,3.7,9.9,9.5c0,5.7-3.9,8.8-8.2,9.2l8.5,12.8H835.9z M836.2,42.1    c0-3.5-2.5-6-6.3-6h-8.3v12h8.3C833.6,48.2,836.2,45.7,836.2,42.1z"/>
		<path d="M846.4,64.1V32.6h20.6v3.5h-16.7v10.2h16.4v3.5h-16.4v14.4H846.4z"/>
		<path d="M871.1,48.4c0-9.3,6.3-16.3,15.6-16.3c9.3,0,15.6,7,15.6,16.3s-6.3,16.3-15.6,16.3C877.4,64.7,871.1,57.7,871.1,48.4z     M898.3,48.4c0-7.4-4.5-12.8-11.6-12.8c-7.1,0-11.6,5.4-11.6,12.8c0,7.3,4.5,12.8,11.6,12.8C893.8,61.2,898.3,55.7,898.3,48.4z"/>
		<path d="M926.7,64.1l-8-12.5h-6.3v12.5h-3.9V32.6h12.7c5.8,0,9.9,3.7,9.9,9.5c0,5.7-3.9,8.8-8.2,9.2l8.5,12.8H926.7z M927,42.1    c0-3.5-2.5-6-6.3-6h-8.3v12h8.3C924.4,48.2,927,45.7,927,42.1z"/>
		<path d="M937.2,64.1V32.6H948c9.8,0,16.1,6.8,16.1,15.8c0,9-6.4,15.7-16.1,15.7H937.2z M960.1,48.4c0-6.8-4.3-12.3-12.1-12.3h-6.8    v24.5h6.8C955.6,60.6,960.1,55.2,960.1,48.4z"/>
		<path d="M1009.4,64.1V38.2l-10.7,25.9H997l-10.7-25.9v25.9h-3.9V32.6h5.6l9.8,23.7l9.8-23.7h5.6v31.5H1009.4z"/>
		<path d="M1019.4,48.4c0-9.3,6.3-16.3,15.6-16.3c9.3,0,15.6,7,15.6,16.3s-6.3,16.3-15.6,16.3C1025.6,64.7,1019.4,57.7,1019.4,48.4z     M1046.6,48.4c0-7.4-4.5-12.8-11.6-12.8c-7.1,0-11.6,5.4-11.6,12.8c0,7.3,4.5,12.8,11.6,12.8C1042,61.2,1046.6,55.7,1046.6,48.4z"/>
		<path d="M1056.8,64.1V32.6h10.8c9.8,0,16.1,6.8,16.1,15.8c0,9-6.4,15.7-16.1,15.7H1056.8z M1079.6,48.4c0-6.8-4.3-12.3-12.1-12.3    h-6.8v24.5h6.8C1075.2,60.6,1079.6,55.2,1079.6,48.4z"/>
		<path d="M1089.8,64.1V32.6h20.6v3.5h-16.7v10.2h16.4v3.5h-16.4v10.9h16.7v3.5H1089.8z"/>
		<path d="M1116.7,64.1V32.6h3.9v28h14.6v3.5H1116.7z"/>
	</g>
	<line class="st43" x1="600" y1="2.5" x2="600" y2="652.7"/>
</g>
</svg>